<svg width="243" height="71" xmlns="http://www.w3.org/2000/svg" preserveAspectRatio="xMidYMid meet" version="1.0">

 <g>
  <title>Layer 1</title>
  <g id="svg_1" fill="red" transform="translate(0.000000,71.000000) scale(0.100000,-0.100000)">
   <path id="svg_2" d="m10,670c0,-6 44,-10 111,-10l112,0l343,-241l344,-241l0,-49l0,-49l-103,0l-103,0l-130,90c-148,103 -543,373 -561,384c-10,6 -13,-47 -13,-248l0,-256l465,0l465,0l0,315l0,315l-465,0c-303,0 -465,-3 -465,-10z"/>
   <path id="svg_3" d="m1731,637c-19,-6 -43,-24 -54,-38c-16,-23 -18,-32 -8,-60c18,-55 70,-83 160,-87c56,-3 81,1 96,11c19,15 19,16 2,51c-17,37 -24,40 -67,26c-15,-5 -18,-8 -9,-9c22,-1 33,-32 17,-43c-20,-14 -97,-2 -118,17c-21,19 -26,69 -10,95c10,16 74,18 123,5c17,-5 27,-3 27,3c0,29 -106,49 -159,29z"/>
   <path id="svg_4" d="m1154,600c3,-22 15,-65 27,-95c19,-52 22,-55 55,-55l34,0l-17,26c-16,25 -16,27 2,40c27,20 31,19 79,-26c31,-29 52,-40 75,-40c17,0 31,4 31,8c0,5 -21,24 -47,42c-27,18 -50,35 -52,37c-3,2 5,13 17,26c12,13 22,29 22,35c0,25 -58,42 -146,42l-87,0l7,-40zm155,11c12,-8 12,-12 2,-25c-16,-19 -77,-40 -91,-31c-11,7 -14,48 -3,58c9,10 76,8 92,-2z"/>
   <path id="svg_5" d="m1461,530c10,-38 19,-72 19,-75c0,-3 11,-5 25,-5c29,0 30,5 10,40c-17,30 -19,76 -4,86c16,9 -9,24 -43,24l-27,0l20,-70z"/>
   <path id="svg_6" d="m1550,594c0,-4 10,-18 21,-30c13,-14 23,-41 26,-68c5,-43 8,-46 34,-46c21,0 29,5 29,18c-1,23 -34,94 -51,108c-19,15 -59,27 -59,18z"/>
   <path id="svg_7" d="m1000,263c0,-21 36,-136 51,-165c8,-15 23,-18 85,-18c98,0 144,18 144,58c0,62 -106,131 -212,140c-63,4 -68,3 -68,-15zm182,-52c50,-55 30,-101 -42,-101c-27,0 -34,6 -50,43c-10,23 -22,55 -26,71l-7,29l49,-6c38,-4 54,-12 76,-36z"/>
   <path id="svg_8" d="m1284,265c-7,-17 30,-131 52,-163c10,-14 26,-22 45,-22l29,0l-16,38c-9,20 -25,65 -36,100c-17,54 -23,62 -44,62c-14,0 -27,-7 -30,-15z"/>
   <path id="svg_9" d="m1430,255c0,-90 146,-202 214,-165c29,15 56,61 56,95c0,43 -37,95 -67,95c-25,0 -25,-1 -10,-18c32,-35 40,-77 22,-111c-22,-44 -57,-41 -106,8c-33,32 -39,45 -39,80c0,40 -1,41 -35,41c-31,0 -35,-3 -35,-25z"/>
   <path id="svg_10" d="m1710,246c0,-32 33,-127 53,-153c5,-7 24,-13 43,-13l33,0l-24,49c-14,27 -30,72 -37,100c-10,47 -14,51 -40,51c-25,0 -28,-3 -28,-34z"/>
   <path id="svg_11" d="m1860,257c0,-28 38,-147 52,-164c9,-12 48,-19 48,-9c0,2 -9,23 -20,47c-19,42 -26,89 -14,89c11,0 70,-44 121,-92c102,-94 129,-46 52,95c-24,45 -36,57 -55,57l-24,0l25,-40c23,-36 33,-70 20,-70c-3,0 -42,25 -87,55c-90,61 -118,68 -118,32z"/>
   <path id="svg_12" d="m2178,255c-40,-27 -50,-64 -28,-106c17,-32 89,-62 160,-66c77,-6 107,9 97,48c-12,42 -22,51 -51,43c-21,-5 -24,-9 -15,-20c21,-25 3,-44 -41,-44c-75,0 -128,81 -82,123c21,19 92,23 109,6c7,-7 17,-8 28,-2c28,16 -8,35 -77,40c-56,4 -67,1 -100,-22z"/>
  </g>
  <path id="svg_13" d="m2.49825,16.08261l69.33407,47.4165l20.33305,-0.16666l0.08333,-9.74986l-68.9157,-48.16599l-21.99969,-0.49999l1.16494,11.16601z" opacity="NaN" stroke="#ffffff" fill="#ffffff"/>
 </g>
</svg>